<svg version="1.1" xmlns="http://www.w3.org/2000/svg" xmlns:xlink="http://www.w3.org/1999/xlink" width="996" height="664"><defs></defs><g><g transform="translate(-14,-230) scale(1,1)"><rect fill="#C0C0C0" stroke="none" x="31" y="247" width="134.4" height="15" opacity="0.2"></rect></g><g transform="translate(-14,-230) scale(1,1)"><rect fill="#C0C0C0" stroke="none" x="31" y="261" width="336" height="626" opacity="0.2"></rect></g><g transform="translate(-14,-230) scale(1,1)"><rect fill="#ffffff" stroke="none" x="24" y="255" width="336" height="625"></rect></g><g transform="translate(-14,-230) scale(1,1)"><path fill="none" stroke="#000000" d="M 24 255 L 360 255 L 360 880 L 24 880 L 24 255 Z Z" stroke-miterlimit="10"></path></g><g transform="translate(-14,-230) scale(1,1)"><rect fill="#ffffff" stroke="none" x="24" y="240" width="134.4" height="15"></rect></g><g transform="translate(-14,-230) scale(1,1)"><path fill="none" stroke="#000000" d="M 24 240 L 158.4 240 L 158.4 255 L 24 255 L 24 240 Z Z" stroke-miterlimit="10"></path></g><g transform="translate(-14,-230) scale(1,1)"><rect fill="#ffffff" stroke="none" x="24" y="254" width="336" height="626"></rect></g><g transform="translate(-14,-230) scale(1,1)"><path fill="none" stroke="#000000" d="M 24 254 L 360 254 L 360 880 L 24 880 L 24 254 Z Z" stroke-miterlimit="10"></path></g><g transform="translate(-14,-230) scale(1,1)"><path fill="none" stroke="#000000" d="M 149.4 243 L 143.4 250 L 155.4 250 L 149.4 243" stroke-miterlimit="10"></path></g><g transform="translate(-14,-230) scale(1,1)"><g><path fill="none" stroke="none"></path><text fill="#000000" stroke="none" font-family="Arial" font-size="13px" font-style="normal" font-weight="bold" text-decoration="none" x="177" y="274.5">Vista</text></g></g><g transform="translate(-14,-230) scale(1,1)"><rect fill="#C0C0C0" stroke="none" x="95" y="311" width="49" height="44" opacity="0.2"></rect></g><g transform="translate(-14,-230) scale(1,1)"><rect fill="#ffffff" stroke="none" x="88" y="304" width="49" height="44"></rect></g><g transform="translate(-14,-230) scale(1,1)"><path fill="none" stroke="#000000" d="M 88 304 L 137 304 L 137 348 L 88 348 L 88 304 Z Z" stroke-miterlimit="10"></path></g><g transform="translate(-14,-230) scale(1,1)"><path fill="none" stroke="#000000" d="M 88 329 L 137 329" stroke-miterlimit="10"></path></g><g transform="translate(-14,-230) scale(1,1)"><path fill="none" stroke="#000000" d="M 88 339 L 137 339" stroke-miterlimit="10"></path></g><g transform="translate(-14,-230) scale(1,1)"><g><path fill="none" stroke="none"></path><text fill="#000000" stroke="none" font-family="Arial" font-size="13px" font-style="normal" font-weight="bold" text-decoration="none" x="97.5" y="323.5">Inicio</text></g></g><g transform="translate(-14,-230) scale(1,1)"><rect fill="#C0C0C0" stroke="none" x="239" y="303" width="49" height="44" opacity="0.2"></rect></g><g transform="translate(-14,-230) scale(1,1)"><rect fill="#ffffff" stroke="none" x="232" y="296" width="49" height="44"></rect></g><g transform="translate(-14,-230) scale(1,1)"><path fill="none" stroke="#000000" d="M 232 296 L 281 296 L 281 340 L 232 340 L 232 296 Z Z" stroke-miterlimit="10"></path></g><g transform="translate(-14,-230) scale(1,1)"><path fill="none" stroke="#000000" d="M 232 321 L 281 321" stroke-miterlimit="10"></path></g><g transform="translate(-14,-230) scale(1,1)"><path fill="none" stroke="#000000" d="M 232 331 L 281 331" stroke-miterlimit="10"></path></g><g transform="translate(-14,-230) scale(1,1)"><g><path fill="none" stroke="none"></path><text fill="#000000" stroke="none" font-family="Arial" font-size="13px" font-style="normal" font-weight="bold" text-decoration="none" x="241" y="315.5">Login</text></g></g><g transform="translate(-14,-230) scale(1,1)"><rect fill="#C0C0C0" stroke="none" x="439" y="255" width="99.20000000000005" height="15" opacity="0.2"></rect></g><g transform="translate(-14,-230) scale(1,1)"><rect fill="#C0C0C0" stroke="none" x="439" y="269" width="248" height="618" opacity="0.2"></rect></g><g transform="translate(-14,-230) scale(1,1)"><rect fill="#ffffff" stroke="none" x="432" y="263" width="248" height="617"></rect></g><g transform="translate(-14,-230) scale(1,1)"><path fill="none" stroke="#000000" d="M 432 263 L 680 263 L 680 880 L 432 880 L 432 263 Z Z" stroke-miterlimit="10"></path></g><g transform="translate(-14,-230) scale(1,1)"><rect fill="#ffffff" stroke="none" x="432" y="248" width="99.20000000000005" height="15"></rect></g><g transform="translate(-14,-230) scale(1,1)"><path fill="none" stroke="#000000" d="M 432 248 L 531.2 248 L 531.2 263 L 432 263 L 432 248 Z Z" stroke-miterlimit="10"></path></g><g transform="translate(-14,-230) scale(1,1)"><rect fill="#ffffff" stroke="none" x="432" y="262" width="248" height="618"></rect></g><g transform="translate(-14,-230) scale(1,1)"><path fill="none" stroke="#000000" d="M 432 262 L 680 262 L 680 880 L 432 880 L 432 262 Z Z" stroke-miterlimit="10"></path></g><g transform="translate(-14,-230) scale(1,1)"><path fill="none" stroke="#000000" d="M 522.2 251 L 516.2 258 L 528.2 258 L 522.2 251" stroke-miterlimit="10"></path></g><g transform="translate(-14,-230) scale(1,1)"><g><path fill="none" stroke="none"></path><text fill="#000000" stroke="none" font-family="Arial" font-size="13px" font-style="normal" font-weight="bold" text-decoration="none" x="523" y="282.5">Controlador</text></g></g><g transform="translate(-14,-230) scale(1,1)"><rect fill="#C0C0C0" stroke="none" x="735" y="271" width="108.79999999999995" height="15" opacity="0.2"></rect></g><g transform="translate(-14,-230) scale(1,1)"><rect fill="#C0C0C0" stroke="none" x="735" y="285" width="272" height="602" opacity="0.2"></rect></g><g transform="translate(-14,-230) scale(1,1)"><rect fill="#ffffff" stroke="none" x="728" y="279" width="272" height="601"></rect></g><g transform="translate(-14,-230) scale(1,1)"><path fill="none" stroke="#000000" d="M 728 279 L 1000 279 L 1000 880 L 728 880 L 728 279 Z Z" stroke-miterlimit="10"></path></g><g transform="translate(-14,-230) scale(1,1)"><rect fill="#ffffff" stroke="none" x="728" y="264" width="108.79999999999995" height="15"></rect></g><g transform="translate(-14,-230) scale(1,1)"><path fill="none" stroke="#000000" d="M 728 264 L 836.8 264 L 836.8 279 L 728 279 L 728 264 Z Z" stroke-miterlimit="10"></path></g><g transform="translate(-14,-230) scale(1,1)"><rect fill="#ffffff" stroke="none" x="728" y="278" width="272" height="602"></rect></g><g transform="translate(-14,-230) scale(1,1)"><path fill="none" stroke="#000000" d="M 728 278 L 1000 278 L 1000 880 L 728 880 L 728 278 Z Z" stroke-miterlimit="10"></path></g><g transform="translate(-14,-230) scale(1,1)"><path fill="none" stroke="#000000" d="M 827.8 267 L 821.8 274 L 833.8 274 L 827.8 267" stroke-miterlimit="10"></path></g><g transform="translate(-14,-230) scale(1,1)"><g><path fill="none" stroke="none"></path><text fill="#000000" stroke="none" font-family="Arial" font-size="13px" font-style="normal" font-weight="bold" text-decoration="none" x="843" y="298.5">Modelo</text></g></g><g transform="translate(-14,-230) scale(1,1)"><rect fill="#C0C0C0" stroke="none" x="471" y="311" width="49" height="44" opacity="0.2"></rect></g><g transform="translate(-14,-230) scale(1,1)"><rect fill="#ffffff" stroke="none" x="464" y="304" width="49" height="44"></rect></g><g transform="translate(-14,-230) scale(1,1)"><path fill="none" stroke="#000000" d="M 464 304 L 513 304 L 513 348 L 464 348 L 464 304 Z Z" stroke-miterlimit="10"></path></g><g transform="translate(-14,-230) scale(1,1)"><path fill="none" stroke="#000000" d="M 464 329 L 513 329" stroke-miterlimit="10"></path></g><g transform="translate(-14,-230) scale(1,1)"><path fill="none" stroke="#000000" d="M 464 339 L 513 339" stroke-miterlimit="10"></path></g><g transform="translate(-14,-230) scale(1,1)"><g><path fill="none" stroke="none"></path><text fill="#000000" stroke="none" font-family="Arial" font-size="13px" font-style="normal" font-weight="bold" text-decoration="none" x="473" y="323.5">Login</text></g></g><g transform="translate(-14,-230) scale(1,1)"><path fill="none" stroke="#000000" d="M 282 319 L 463 325" stroke-miterlimit="10"></path></g><g transform="translate(-14,-230) scale(1,1)"><path fill="none" stroke="#000000" d="M 452.70343884251474 328.87050750292076 L 463 325 L 452.9823696806915 320.4560938845888" stroke-miterlimit="10"></path></g><g transform="translate(-14,-230) scale(1,1)"><rect fill="#C0C0C0" stroke="none" x="167" y="359" width="61" height="44" opacity="0.2"></rect></g><g transform="translate(-14,-230) scale(1,1)"><rect fill="#ffffff" stroke="none" x="160" y="352" width="61" height="44"></rect></g><g transform="translate(-14,-230) scale(1,1)"><path fill="none" stroke="#000000" d="M 160 352 L 221 352 L 221 396 L 160 396 L 160 352 Z Z" stroke-miterlimit="10"></path></g><g transform="translate(-14,-230) scale(1,1)"><path fill="none" stroke="#000000" d="M 160 377 L 221 377" stroke-miterlimit="10"></path></g><g transform="translate(-14,-230) scale(1,1)"><path fill="none" stroke="#000000" d="M 160 387 L 221 387" stroke-miterlimit="10"></path></g><g transform="translate(-14,-230) scale(1,1)"><g><path fill="none" stroke="none"></path><text fill="#000000" stroke="none" font-family="Arial" font-size="13px" font-style="normal" font-weight="bold" text-decoration="none" x="166.5" y="371.5">Registro</text></g></g><g transform="translate(-14,-230) scale(1,1)"><rect fill="#C0C0C0" stroke="none" x="79" y="599" width="49" height="44" opacity="0.2"></rect></g><g transform="translate(-14,-230) scale(1,1)"><rect fill="#ffffff" stroke="none" x="72" y="592" width="49" height="44"></rect></g><g transform="translate(-14,-230) scale(1,1)"><path fill="none" stroke="#000000" d="M 72 592 L 121 592 L 121 636 L 72 636 L 72 592 Z Z" stroke-miterlimit="10"></path></g><g transform="translate(-14,-230) scale(1,1)"><path fill="none" stroke="#000000" d="M 72 617 L 121 617" stroke-miterlimit="10"></path></g><g transform="translate(-14,-230) scale(1,1)"><path fill="none" stroke="#000000" d="M 72 627 L 121 627" stroke-miterlimit="10"></path></g><g transform="translate(-14,-230) scale(1,1)"><g><path fill="none" stroke="none"></path><text fill="#000000" stroke="none" font-family="Arial" font-size="13px" font-style="normal" font-weight="bold" text-decoration="none" x="78" y="611.5">Danza</text></g></g><g transform="translate(-14,-230) scale(1,1)"><rect fill="#C0C0C0" stroke="none" x="151" y="599" width="59" height="44" opacity="0.2"></rect></g><g transform="translate(-14,-230) scale(1,1)"><rect fill="#ffffff" stroke="none" x="144" y="592" width="59" height="44"></rect></g><g transform="translate(-14,-230) scale(1,1)"><path fill="none" stroke="#000000" d="M 144 592 L 203 592 L 203 636 L 144 636 L 144 592 Z Z" stroke-miterlimit="10"></path></g><g transform="translate(-14,-230) scale(1,1)"><path fill="none" stroke="#000000" d="M 144 617 L 203 617" stroke-miterlimit="10"></path></g><g transform="translate(-14,-230) scale(1,1)"><path fill="none" stroke="#000000" d="M 144 627 L 203 627" stroke-miterlimit="10"></path></g><g transform="translate(-14,-230) scale(1,1)"><g><path fill="none" stroke="none"></path><text fill="#000000" stroke="none" font-family="Arial" font-size="13px" font-style="normal" font-weight="bold" text-decoration="none" x="151.5" y="611.5">Cultural</text></g></g><g transform="translate(-14,-230) scale(1,1)"><rect fill="#C0C0C0" stroke="none" x="223" y="599" width="53" height="44" opacity="0.2"></rect></g><g transform="translate(-14,-230) scale(1,1)"><rect fill="#ffffff" stroke="none" x="216" y="592" width="53" height="44"></rect></g><g transform="translate(-14,-230) scale(1,1)"><path fill="none" stroke="#000000" d="M 216 592 L 269 592 L 269 636 L 216 636 L 216 592 Z Z" stroke-miterlimit="10"></path></g><g transform="translate(-14,-230) scale(1,1)"><path fill="none" stroke="#000000" d="M 216 617 L 269 617" stroke-miterlimit="10"></path></g><g transform="translate(-14,-230) scale(1,1)"><path fill="none" stroke="#000000" d="M 216 627 L 269 627" stroke-miterlimit="10"></path></g><g transform="translate(-14,-230) scale(1,1)"><g><path fill="none" stroke="none"></path><text fill="#000000" stroke="none" font-family="Arial" font-size="13px" font-style="normal" font-weight="bold" text-decoration="none" x="221.5" y="611.5">Musica</text></g></g><g transform="translate(-14,-230) scale(1,1)"><rect fill="#C0C0C0" stroke="none" x="287" y="599" width="71" height="44" opacity="0.2"></rect></g><g transform="translate(-14,-230) scale(1,1)"><rect fill="#ffffff" stroke="none" x="280" y="592" width="71" height="44"></rect></g><g transform="translate(-14,-230) scale(1,1)"><path fill="none" stroke="#000000" d="M 280 592 L 351 592 L 351 636 L 280 636 L 280 592 Z Z" stroke-miterlimit="10"></path></g><g transform="translate(-14,-230) scale(1,1)"><path fill="none" stroke="#000000" d="M 280 617 L 351 617" stroke-miterlimit="10"></path></g><g transform="translate(-14,-230) scale(1,1)"><path fill="none" stroke="#000000" d="M 280 627 L 351 627" stroke-miterlimit="10"></path></g><g transform="translate(-14,-230) scale(1,1)"><g><path fill="none" stroke="none"></path><text fill="#000000" stroke="none" font-family="Arial" font-size="13px" font-style="normal" font-weight="bold" text-decoration="none" x="288.5" y="611.5">Literatura</text></g></g><g transform="translate(-14,-230) scale(1,1)"><rect fill="#C0C0C0" stroke="none" x="143" y="687" width="62" height="44" opacity="0.2"></rect></g><g transform="translate(-14,-230) scale(1,1)"><rect fill="#ffffff" stroke="none" x="136" y="680" width="62" height="44"></rect></g><g transform="translate(-14,-230) scale(1,1)"><path fill="none" stroke="#000000" d="M 136 680 L 198 680 L 198 724 L 136 724 L 136 680 Z Z" stroke-miterlimit="10"></path></g><g transform="translate(-14,-230) scale(1,1)"><path fill="none" stroke="#000000" d="M 136 705 L 198 705" stroke-miterlimit="10"></path></g><g transform="translate(-14,-230) scale(1,1)"><path fill="none" stroke="#000000" d="M 136 715 L 198 715" stroke-miterlimit="10"></path></g><g transform="translate(-14,-230) scale(1,1)"><g><path fill="none" stroke="none"></path><text fill="#000000" stroke="none" font-family="Arial" font-size="13px" font-style="normal" font-weight="bold" text-decoration="none" x="143.5" y="699.5">Publicar</text></g></g><g transform="translate(-14,-230) scale(1,1)"><rect fill="#C0C0C0" stroke="none" x="239" y="687" width="62" height="44" opacity="0.2"></rect></g><g transform="translate(-14,-230) scale(1,1)"><rect fill="#ffffff" stroke="none" x="232" y="680" width="62" height="44"></rect></g><g transform="translate(-14,-230) scale(1,1)"><path fill="none" stroke="#000000" d="M 232 680 L 294 680 L 294 724 L 232 724 L 232 680 Z Z" stroke-miterlimit="10"></path></g><g transform="translate(-14,-230) scale(1,1)"><path fill="none" stroke="#000000" d="M 232 705 L 294 705" stroke-miterlimit="10"></path></g><g transform="translate(-14,-230) scale(1,1)"><path fill="none" stroke="#000000" d="M 232 715 L 294 715" stroke-miterlimit="10"></path></g><g transform="translate(-14,-230) scale(1,1)"><g><path fill="none" stroke="none"></path><text fill="#000000" stroke="none" font-family="Arial" font-size="13px" font-style="normal" font-weight="bold" text-decoration="none" x="240" y="699.5">Calificar</text></g></g><g transform="translate(-14,-230) scale(1,1)"><rect fill="#C0C0C0" stroke="none" x="183" y="519" width="59" height="44" opacity="0.2"></rect></g><g transform="translate(-14,-230) scale(1,1)"><rect fill="#ffffff" stroke="none" x="176" y="512" width="59" height="44"></rect></g><g transform="translate(-14,-230) scale(1,1)"><path fill="none" stroke="#000000" d="M 176 512 L 235 512 L 235 556 L 176 556 L 176 512 Z Z" stroke-miterlimit="10"></path></g><g transform="translate(-14,-230) scale(1,1)"><path fill="none" stroke="#000000" d="M 176 537 L 235 537" stroke-miterlimit="10"></path></g><g transform="translate(-14,-230) scale(1,1)"><path fill="none" stroke="#000000" d="M 176 547 L 235 547" stroke-miterlimit="10"></path></g><g transform="translate(-14,-230) scale(1,1)"><g><path fill="none" stroke="none"></path><text fill="#000000" stroke="none" font-family="Arial" font-size="13px" font-style="normal" font-weight="bold" text-decoration="none" x="183.5" y="531.5">Cultural</text></g></g><g transform="translate(-14,-230) scale(1,1)"><rect fill="#C0C0C0" stroke="none" x="63" y="415" width="58" height="44" opacity="0.2"></rect></g><g transform="translate(-14,-230) scale(1,1)"><rect fill="#ffffff" stroke="none" x="56" y="408" width="58" height="44"></rect></g><g transform="translate(-14,-230) scale(1,1)"><path fill="none" stroke="#000000" d="M 56 408 L 114 408 L 114 452 L 56 452 L 56 408 Z Z" stroke-miterlimit="10"></path></g><g transform="translate(-14,-230) scale(1,1)"><path fill="none" stroke="#000000" d="M 56 433 L 114 433" stroke-miterlimit="10"></path></g><g transform="translate(-14,-230) scale(1,1)"><path fill="none" stroke="#000000" d="M 56 443 L 114 443" stroke-miterlimit="10"></path></g><g transform="translate(-14,-230) scale(1,1)"><g><path fill="none" stroke="none"></path><text fill="#000000" stroke="none" font-family="Arial" font-size="13px" font-style="normal" font-weight="bold" text-decoration="none" x="63" y="427.5">Articulo</text></g></g><g transform="translate(-14,-230) scale(1,1)"><rect fill="#C0C0C0" stroke="none" x="183" y="463" width="49" height="44" opacity="0.2"></rect></g><g transform="translate(-14,-230) scale(1,1)"><rect fill="#ffffff" stroke="none" x="176" y="456" width="49" height="44"></rect></g><g transform="translate(-14,-230) scale(1,1)"><path fill="none" stroke="#000000" d="M 176 456 L 225 456 L 225 500 L 176 500 L 176 456 Z Z" stroke-miterlimit="10"></path></g><g transform="translate(-14,-230) scale(1,1)"><path fill="none" stroke="#000000" d="M 176 481 L 225 481" stroke-miterlimit="10"></path></g><g transform="translate(-14,-230) scale(1,1)"><path fill="none" stroke="#000000" d="M 176 491 L 225 491" stroke-miterlimit="10"></path></g><g transform="translate(-14,-230) scale(1,1)"><g><path fill="none" stroke="none"></path><text fill="#000000" stroke="none" font-family="Arial" font-size="13px" font-style="normal" font-weight="bold" text-decoration="none" x="188" y="475.5">Test</text></g></g><g transform="translate(-14,-230) scale(1,1)"><rect fill="#C0C0C0" stroke="none" x="175" y="847" width="70" height="44" opacity="0.2"></rect></g><g transform="translate(-14,-230) scale(1,1)"><rect fill="#ffffff" stroke="none" x="168" y="840" width="70" height="44"></rect></g><g transform="translate(-14,-230) scale(1,1)"><path fill="none" stroke="#000000" d="M 168 840 L 238 840 L 238 884 L 168 884 L 168 840 Z Z" stroke-miterlimit="10"></path></g><g transform="translate(-14,-230) scale(1,1)"><path fill="none" stroke="#000000" d="M 168 865 L 238 865" stroke-miterlimit="10"></path></g><g transform="translate(-14,-230) scale(1,1)"><path fill="none" stroke="#000000" d="M 168 875 L 238 875" stroke-miterlimit="10"></path></g><g transform="translate(-14,-230) scale(1,1)"><g><path fill="none" stroke="none"></path><text fill="#000000" stroke="none" font-family="Arial" font-size="13px" font-style="normal" font-weight="bold" text-decoration="none" x="176.5" y="859.5">Deportivo</text></g></g><g transform="translate(-14,-230) scale(1,1)"><rect fill="#C0C0C0" stroke="none" x="71" y="759" width="70" height="44" opacity="0.2"></rect></g><g transform="translate(-14,-230) scale(1,1)"><rect fill="#ffffff" stroke="none" x="64" y="752" width="70" height="44"></rect></g><g transform="translate(-14,-230) scale(1,1)"><path fill="none" stroke="#000000" d="M 64 752 L 134 752 L 134 796 L 64 796 L 64 752 Z Z" stroke-miterlimit="10"></path></g><g transform="translate(-14,-230) scale(1,1)"><path fill="none" stroke="#000000" d="M 64 777 L 134 777" stroke-miterlimit="10"></path></g><g transform="translate(-14,-230) scale(1,1)"><path fill="none" stroke="#000000" d="M 64 787 L 134 787" stroke-miterlimit="10"></path></g><g transform="translate(-14,-230) scale(1,1)"><g><path fill="none" stroke="none"></path><text fill="#000000" stroke="none" font-family="Arial" font-size="13px" font-style="normal" font-weight="bold" text-decoration="none" x="77.5" y="771.5">Beisbol</text></g></g><g transform="translate(-14,-230) scale(1,1)"><rect fill="#C0C0C0" stroke="none" x="159" y="775" width="62" height="44" opacity="0.2"></rect></g><g transform="translate(-14,-230) scale(1,1)"><rect fill="#ffffff" stroke="none" x="152" y="768" width="62" height="44"></rect></g><g transform="translate(-14,-230) scale(1,1)"><path fill="none" stroke="#000000" d="M 152 768 L 214 768 L 214 812 L 152 812 L 152 768 Z Z" stroke-miterlimit="10"></path></g><g transform="translate(-14,-230) scale(1,1)"><path fill="none" stroke="#000000" d="M 152 793 L 214 793" stroke-miterlimit="10"></path></g><g transform="translate(-14,-230) scale(1,1)"><path fill="none" stroke="#000000" d="M 152 803 L 214 803" stroke-miterlimit="10"></path></g><g transform="translate(-14,-230) scale(1,1)"><g><path fill="none" stroke="none"></path><text fill="#000000" stroke="none" font-family="Arial" font-size="13px" font-style="normal" font-weight="bold" text-decoration="none" x="160" y="787.5">Voleibol</text></g></g><g transform="translate(-14,-230) scale(1,1)"><rect fill="#C0C0C0" stroke="none" x="231" y="775" width="80" height="44" opacity="0.2"></rect></g><g transform="translate(-14,-230) scale(1,1)"><rect fill="#ffffff" stroke="none" x="224" y="768" width="80" height="44"></rect></g><g transform="translate(-14,-230) scale(1,1)"><path fill="none" stroke="#000000" d="M 224 768 L 304 768 L 304 812 L 224 812 L 224 768 Z Z" stroke-miterlimit="10"></path></g><g transform="translate(-14,-230) scale(1,1)"><path fill="none" stroke="#000000" d="M 224 793 L 304 793" stroke-miterlimit="10"></path></g><g transform="translate(-14,-230) scale(1,1)"><path fill="none" stroke="#000000" d="M 224 803 L 304 803" stroke-miterlimit="10"></path></g><g transform="translate(-14,-230) scale(1,1)"><g><path fill="none" stroke="none"></path><text fill="#000000" stroke="none" font-family="Arial" font-size="13px" font-style="normal" font-weight="bold" text-decoration="none" x="231.5" y="787.5">Basquetbol</text></g></g><g transform="translate(-14,-230) scale(1,1)"><rect fill="#C0C0C0" stroke="none" x="319" y="775" width="49" height="44" opacity="0.2"></rect></g><g transform="translate(-14,-230) scale(1,1)"><rect fill="#ffffff" stroke="none" x="312" y="768" width="49" height="44"></rect></g><g transform="translate(-14,-230) scale(1,1)"><path fill="none" stroke="#000000" d="M 312 768 L 361 768 L 361 812 L 312 812 L 312 768 Z Z" stroke-miterlimit="10"></path></g><g transform="translate(-14,-230) scale(1,1)"><path fill="none" stroke="#000000" d="M 312 793 L 361 793" stroke-miterlimit="10"></path></g><g transform="translate(-14,-230) scale(1,1)"><path fill="none" stroke="#000000" d="M 312 803 L 361 803" stroke-miterlimit="10"></path></g><g transform="translate(-14,-230) scale(1,1)"><g><path fill="none" stroke="none"></path><text fill="#000000" stroke="none" font-family="Arial" font-size="13px" font-style="normal" font-weight="bold" text-decoration="none" x="318.5" y="787.5">Futbol</text></g></g><g transform="translate(-14,-230) scale(1,1)"><path fill="none" stroke="#000000" d="M 145 725 L 121 751" stroke-miterlimit="10"></path></g><g transform="translate(-14,-230) scale(1,1)"><path fill="#FFFFFF" stroke="none" d="M 124.79997199913093 740.6771993719814 L 121 751 L 130.98630829381318 746.3876636439958 L 135.92216226012744 734.8343242181953"></path></g><g transform="translate(-14,-230) scale(1,1)"><path fill="none" stroke="#000000" d="M 124.79997199913093 740.6771993719814 L 121 751 L 130.98630829381318 746.3876636439958 L 135.92216226012744 734.8343242181953 L 124.79997199913093 740.6771993719814" stroke-miterlimit="10"></path></g><g transform="translate(-14,-230) scale(1,1)"><path fill="none" stroke="#000000" d="M 171 725 L 179 767" stroke-miterlimit="10"></path></g><g transform="translate(-14,-230) scale(1,1)"><path fill="#FFFFFF" stroke="none" d="M 172.9632688478146 757.8044642898723 L 179 767 L 181.233612123364 756.2291608088152 L 174.8835336264201 745.3885515387055"></path></g><g transform="translate(-14,-230) scale(1,1)"><path fill="none" stroke="#000000" d="M 172.9632688478146 757.8044642898723 L 179 767 L 181.233612123364 756.2291608088152 L 174.8835336264201 745.3885515387055 L 172.9632688478146 757.8044642898723" stroke-miterlimit="10"></path></g><g transform="translate(-14,-230) scale(1,1)"><path fill="none" stroke="#000000" d="M 192 725 L 239 767" stroke-miterlimit="10"></path></g><g transform="translate(-14,-230) scale(1,1)"><path fill="#FFFFFF" stroke="none" d="M 228.61720738726956 763.3671474622508 L 239 767 L 234.22707160037788 757.0894422713916 L 222.59556578642207 752.3407183623347"></path></g><g transform="translate(-14,-230) scale(1,1)"><path fill="none" stroke="#000000" d="M 228.61720738726956 763.3671474622508 L 239 767 L 234.22707160037788 757.0894422713916 L 222.59556578642207 752.3407183623347 L 228.61720738726956 763.3671474622508" stroke-miterlimit="10"></path></g><g transform="translate(-14,-230) scale(1,1)"><path fill="none" stroke="#000000" d="M 199 719 L 311 777" stroke-miterlimit="10"></path></g><g transform="translate(-14,-230) scale(1,1)"><path fill="#FFFFFF" stroke="none" d="M 300.0398369224166 776.0646790322149 L 311 777 L 303.91136616383716 768.5886225660236 L 291.4641229958997 766.8832065514481"></path></g><g transform="translate(-14,-230) scale(1,1)"><path fill="none" stroke="#000000" d="M 300.0398369224166 776.0646790322149 L 311 777 L 303.91136616383716 768.5886225660236 L 291.4641229958997 766.8832065514481 L 300.0398369224166 776.0646790322149" stroke-miterlimit="10"></path></g><g transform="translate(-14,-230) scale(1,1)"><path fill="none" stroke="#000000" d="M 231 716 L 135 758" stroke-miterlimit="10"></path></g><g transform="translate(-14,-230) scale(1,1)"><path fill="#FFFFFF" stroke="none" d="M 142.62335511428685 750.0700279444707 L 135 758 L 145.99786311179002 757.7831890816208 L 155.15546136784815 749.1819856515664"></path></g><g transform="translate(-14,-230) scale(1,1)"><path fill="none" stroke="#000000" d="M 142.62335511428685 750.0700279444707 L 135 758 L 145.99786311179002 757.7831890816208 L 155.15546136784815 749.1819856515664 L 142.62335511428685 750.0700279444707" stroke-miterlimit="10"></path></g><g transform="translate(-14,-230) scale(1,1)"><path fill="none" stroke="#000000" d="M 242 725 L 204 767" stroke-miterlimit="10"></path></g><g transform="translate(-14,-230) scale(1,1)"><path fill="#FFFFFF" stroke="none" d="M 207.69676594020342 756.6397914314744 L 204 767 L 213.93978199808876 762.2882345314658 L 218.76009312732077 750.686212859277"></path></g><g transform="translate(-14,-230) scale(1,1)"><path fill="none" stroke="#000000" d="M 207.69676594020342 756.6397914314744 L 204 767 L 213.93978199808876 762.2882345314658 L 218.76009312732077 750.686212859277 L 207.69676594020342 756.6397914314744" stroke-miterlimit="10"></path></g><g transform="translate(-14,-230) scale(1,1)"><path fill="none" stroke="#000000" d="M 263 725 L 264 767" stroke-miterlimit="10"></path></g><g transform="translate(-14,-230) scale(1,1)"><path fill="#FFFFFF" stroke="none" d="M 259.54977501791245 756.9404027114002 L 264 767 L 267.9664251961348 756.7400062785854 L 263.47633888518163 745.006233177629"></path></g><g transform="translate(-14,-230) scale(1,1)"><path fill="none" stroke="#000000" d="M 259.54977501791245 756.9404027114002 L 264 767 L 267.9664251961348 756.7400062785854 L 263.47633888518163 745.006233177629 L 259.54977501791245 756.9404027114002" stroke-miterlimit="10"></path></g><g transform="translate(-14,-230) scale(1,1)"><path fill="none" stroke="#000000" d="M 282 725 L 317 767" stroke-miterlimit="10"></path></g><g transform="translate(-14,-230) scale(1,1)"><path fill="#FFFFFF" stroke="none" d="M 307.2601729802721 761.887684514256 L 317 767 L 313.72785521430103 756.4979493192318 L 302.9159432073814 750.0991318488577"></path></g><g transform="translate(-14,-230) scale(1,1)"><path fill="none" stroke="#000000" d="M 307.2601729802721 761.887684514256 L 317 767 L 313.72785521430103 756.4979493192318 L 302.9159432073814 750.0991318488577 L 307.2601729802721 761.887684514256" stroke-miterlimit="10"></path></g><g transform="translate(-14,-230) scale(1,1)"><path fill="none" stroke="#000000" d="M 148 679 L 115 637" stroke-miterlimit="10"></path></g><g transform="translate(-14,-230) scale(1,1)"><path fill="#FFFFFF" stroke="none" d="M 124.58874056147067 642.3903668191327 L 115 637 L 117.9686985431627 647.5918284049461 L 128.59207414250187 654.2990034540933"></path></g><g transform="translate(-14,-230) scale(1,1)"><path fill="none" stroke="#000000" d="M 124.58874056147067 642.3903668191327 L 115 637 L 117.9686985431627 647.5918284049461 L 128.59207414250187 654.2990034540933 L 124.58874056147067 642.3903668191327" stroke-miterlimit="10"></path></g><g transform="translate(-14,-230) scale(1,1)"><path fill="none" stroke="#000000" d="M 169 679 L 171 637" stroke-miterlimit="10"></path></g><g transform="translate(-14,-230) scale(1,1)"><path fill="#FFFFFF" stroke="none" d="M 174.72136401360612 647.3513984503659 L 171 637 L 166.31185769026683 646.9509457683021 L 169.95356671286012 658.9750990299376"></path></g><g transform="translate(-14,-230) scale(1,1)"><path fill="none" stroke="#000000" d="M 174.72136401360612 647.3513984503659 L 171 637 L 166.31185769026683 646.9509457683021 L 169.95356671286012 658.9750990299376 L 174.72136401360612 647.3513984503659" stroke-miterlimit="10"></path></g><g transform="translate(-14,-230) scale(1,1)"><path fill="none" stroke="#000000" d="M 187 679 L 222 637" stroke-miterlimit="10"></path></g><g transform="translate(-14,-230) scale(1,1)"><path fill="#FFFFFF" stroke="none" d="M 218.72785521430106 647.5020506807682 L 222 637 L 212.2601729802721 642.112315485744 L 207.91594320738145 653.9008681511423"></path></g><g transform="translate(-14,-230) scale(1,1)"><path fill="none" stroke="#000000" d="M 218.72785521430106 647.5020506807682 L 222 637 L 212.2601729802721 642.112315485744 L 207.91594320738145 653.9008681511423 L 218.72785521430106 647.5020506807682" stroke-miterlimit="10"></path></g><g transform="translate(-14,-230) scale(1,1)"><path fill="none" stroke="#000000" d="M 199 683 L 279 635" stroke-miterlimit="10"></path></g><g transform="translate(-14,-230) scale(1,1)"><path fill="#FFFFFF" stroke="none" d="M 272.4513572211376 643.8382847744828 L 279 635 L 268.1197991854035 636.6190213815926 L 260.135155634324 646.3189066194055"></path></g><g transform="translate(-14,-230) scale(1,1)"><path fill="none" stroke="#000000" d="M 272.4513572211376 643.8382847744828 L 279 635 L 268.1197991854035 636.6190213815926 L 260.135155634324 646.3189066194055 L 272.4513572211376 643.8382847744828" stroke-miterlimit="10"></path></g><g transform="translate(-14,-230) scale(1,1)"><path fill="none" stroke="#000000" d="M 231 685 L 122 628" stroke-miterlimit="10"></path></g><g transform="translate(-14,-230) scale(1,1)"><path fill="#FFFFFF" stroke="none" d="M 132.95633767765733 628.9791142390684 L 122 628 L 129.05496235083956 636.4396389868427 L 141.4952906679712 638.1947850282052"></path></g><g transform="translate(-14,-230) scale(1,1)"><path fill="none" stroke="#000000" d="M 132.95633767765733 628.9791142390684 L 122 628 L 129.05496235083956 636.4396389868427 L 141.4952906679712 638.1947850282052 L 132.95633767765733 628.9791142390684" stroke-miterlimit="10"></path></g><g transform="translate(-14,-230) scale(1,1)"><path fill="none" stroke="#000000" d="M 239 679 L 197 637" stroke-miterlimit="10"></path></g><g transform="translate(-14,-230) scale(1,1)"><path fill="#FFFFFF" stroke="none" d="M 207.16267485762415 641.209517756016 L 197 637 L 201.209517756016 647.1626748576241 L 212.55634918610406 652.5563491861041"></path></g><g transform="translate(-14,-230) scale(1,1)"><path fill="none" stroke="#000000" d="M 207.16267485762415 641.209517756016 L 197 637 L 201.209517756016 647.1626748576241 L 212.55634918610406 652.5563491861041 L 207.16267485762415 641.209517756016" stroke-miterlimit="10"></path></g><g transform="translate(-14,-230) scale(1,1)"><path fill="none" stroke="#000000" d="M 258 679 L 247 637" stroke-miterlimit="10"></path></g><g transform="translate(-14,-230) scale(1,1)"><path fill="#FFFFFF" stroke="none" d="M 253.64697967236756 645.7645685139163 L 247 637 L 245.50263857037595 647.8976102311045 L 252.57390662042903 658.2821889143654"></path></g><g transform="translate(-14,-230) scale(1,1)"><path fill="none" stroke="#000000" d="M 253.64697967236756 645.7645685139163 L 247 637 L 245.50263857037595 647.8976102311045 L 252.57390662042903 658.2821889143654 L 253.64697967236756 645.7645685139163" stroke-miterlimit="10"></path></g><g transform="translate(-14,-230) scale(1,1)"><path fill="none" stroke="#000000" d="M 277 679 L 301 637" stroke-miterlimit="10"></path></g><g transform="translate(-14,-230) scale(1,1)"><path fill="#FFFFFF" stroke="none" d="M 299.6127862085847 647.9121784212368 L 301 637 L 292.30301636196066 643.7351670803089 L 290.08494335614967 656.1013491267381"></path></g><g transform="translate(-14,-230) scale(1,1)"><path fill="none" stroke="#000000" d="M 299.6127862085847 647.9121784212368 L 301 637 L 292.30301636196066 643.7351670803089 L 290.08494335614967 656.1013491267381 L 299.6127862085847 647.9121784212368" stroke-miterlimit="10"></path></g><g transform="translate(-14,-230) scale(1,1)"><path fill="none" stroke="#000000" d="M 87 328 L 80 328 L 80 376 L 159 375" stroke-miterlimit="10"></path></g><g transform="translate(-14,-230) scale(1,1)"><path fill="#FFFFFF" stroke="none" d="M 148.89141999741184 379.3378116984575 L 159 375 L 148.78485846451355 370.9194505994928 L 137.0017623262735 375.2784587047307"></path></g><g transform="translate(-14,-230) scale(1,1)"><path fill="none" stroke="#000000" d="M 148.89141999741184 379.3378116984575 L 159 375 L 148.78485846451355 370.9194505994928 L 137.0017623262735 375.2784587047307 L 148.89141999741184 379.3378116984575" stroke-miterlimit="10"></path></g><g transform="translate(-14,-230) scale(1,1)"><path fill="none" stroke="#000000" d="M 86 453 L 88 480 L 175 478" stroke-miterlimit="10"></path></g><g transform="translate(-14,-230) scale(1,1)"><path fill="#000000" stroke="none" d="M 164.9367543830172 482.4419688936638 L 175 478 L 164.7432644569563 474.025157110015 L 153.00581088229893 478.50561354293563"></path></g><g transform="translate(-14,-230) scale(1,1)"><path fill="none" stroke="#000000" d="M 164.9367543830172 482.4419688936638 L 175 478 L 164.7432644569563 474.025157110015 L 153.00581088229893 478.50561354293563 L 164.9367543830172 482.4419688936638" stroke-miterlimit="10"></path></g><g transform="translate(-14,-230) scale(1,1)"><rect fill="#C0C0C0" stroke="none" x="471" y="391" width="109" height="44" opacity="0.2"></rect></g><g transform="translate(-14,-230) scale(1,1)"><rect fill="#ffffff" stroke="none" x="464" y="384" width="109" height="44"></rect></g><g transform="translate(-14,-230) scale(1,1)"><path fill="none" stroke="#000000" d="M 464 384 L 573 384 L 573 428 L 464 428 L 464 384 Z Z" stroke-miterlimit="10"></path></g><g transform="translate(-14,-230) scale(1,1)"><path fill="none" stroke="#000000" d="M 464 409 L 573 409" stroke-miterlimit="10"></path></g><g transform="translate(-14,-230) scale(1,1)"><path fill="none" stroke="#000000" d="M 464 419 L 573 419" stroke-miterlimit="10"></path></g><g transform="translate(-14,-230) scale(1,1)"><g><path fill="none" stroke="none"></path><text fill="#000000" stroke="none" font-family="Arial" font-size="13px" font-style="normal" font-weight="bold" text-decoration="none" x="472.5" y="403.5">RegistroUsuario</text></g></g><g transform="translate(-14,-230) scale(1,1)"><rect fill="#C0C0C0" stroke="none" x="463" y="447" width="64" height="44" opacity="0.2"></rect></g><g transform="translate(-14,-230) scale(1,1)"><rect fill="#ffffff" stroke="none" x="456" y="440" width="64" height="44"></rect></g><g transform="translate(-14,-230) scale(1,1)"><path fill="none" stroke="#000000" d="M 456 440 L 520 440 L 520 484 L 456 484 L 456 440 Z Z" stroke-miterlimit="10"></path></g><g transform="translate(-14,-230) scale(1,1)"><path fill="none" stroke="#000000" d="M 456 465 L 520 465" stroke-miterlimit="10"></path></g><g transform="translate(-14,-230) scale(1,1)"><path fill="none" stroke="#000000" d="M 456 475 L 520 475" stroke-miterlimit="10"></path></g><g transform="translate(-14,-230) scale(1,1)"><g><path fill="none" stroke="none"></path><text fill="#000000" stroke="none" font-family="Arial" font-size="13px" font-style="normal" font-weight="bold" text-decoration="none" x="462.5" y="459.5">Articulos</text></g></g><g transform="translate(-14,-230) scale(1,1)"><rect fill="#C0C0C0" stroke="none" x="463" y="511" width="73" height="44" opacity="0.2"></rect></g><g transform="translate(-14,-230) scale(1,1)"><rect fill="#ffffff" stroke="none" x="456" y="504" width="73" height="44"></rect></g><g transform="translate(-14,-230) scale(1,1)"><path fill="none" stroke="#000000" d="M 456 504 L 529 504 L 529 548 L 456 548 L 456 504 Z Z" stroke-miterlimit="10"></path></g><g transform="translate(-14,-230) scale(1,1)"><path fill="none" stroke="#000000" d="M 456 529 L 529 529" stroke-miterlimit="10"></path></g><g transform="translate(-14,-230) scale(1,1)"><path fill="none" stroke="#000000" d="M 456 539 L 529 539" stroke-miterlimit="10"></path></g><g transform="translate(-14,-230) scale(1,1)"><g><path fill="none" stroke="none"></path><text fill="#000000" stroke="none" font-family="Arial" font-size="13px" font-style="normal" font-weight="bold" text-decoration="none" x="463" y="523.5">Preguntas</text></g></g><g transform="translate(-14,-230) scale(1,1)"><rect fill="#C0C0C0" stroke="none" x="487" y="687" width="60" height="44" opacity="0.2"></rect></g><g transform="translate(-14,-230) scale(1,1)"><rect fill="#ffffff" stroke="none" x="480" y="680" width="60" height="44"></rect></g><g transform="translate(-14,-230) scale(1,1)"><path fill="none" stroke="#000000" d="M 480 680 L 540 680 L 540 724 L 480 724 L 480 680 Z Z" stroke-miterlimit="10"></path></g><g transform="translate(-14,-230) scale(1,1)"><path fill="none" stroke="#000000" d="M 480 705 L 540 705" stroke-miterlimit="10"></path></g><g transform="translate(-14,-230) scale(1,1)"><path fill="none" stroke="#000000" d="M 480 715 L 540 715" stroke-miterlimit="10"></path></g><g transform="translate(-14,-230) scale(1,1)"><g><path fill="none" stroke="none"></path><text fill="#000000" stroke="none" font-family="Arial" font-size="13px" font-style="normal" font-weight="bold" text-decoration="none" x="486.5" y="699.5">Seccion</text></g></g><g transform="translate(-14,-230) scale(1,1)"><path fill="none" stroke="#000000" d="M 226 479 L 440 488 L 461 503" stroke-miterlimit="10"></path></g><g transform="translate(-14,-230) scale(1,1)"><path fill="none" stroke="#000000" d="M 450.2835588144249 500.5184907181093 L 461 503 L 455.1770238082953 493.66763972669077" stroke-miterlimit="10"></path></g><g transform="translate(-14,-230) scale(1,1)"><path fill="none" stroke="#000000" d="M 455 527 L 236 533" stroke-miterlimit="10"></path></g><g transform="translate(-14,-230) scale(1,1)"><path fill="none" stroke="#000000" d="M 246.04357690712638 528.513736196941 L 236 533 L 246.27414889573245 536.9296137810629" stroke-miterlimit="10"></path></g><g transform="translate(-14,-230) scale(1,1)"><path fill="none" stroke="#000000" d="M 530 527 L 592 528 L 592 864 L 239 862" stroke-miterlimit="10"></path></g><g transform="translate(-14,-230) scale(1,1)"><path fill="none" stroke="#000000" d="M 249.1863613247059 857.8481277762272 L 239 862 L 249.13866217236574 866.2670281642661" stroke-miterlimit="10"></path></g><g transform="translate(-14,-230) scale(1,1)"><path fill="none" stroke="#000000" d="M 115 430 L 376 432 L 455 453" stroke-miterlimit="10"></path></g><g transform="translate(-14,-230) scale(1,1)"><path fill="#000000" stroke="none" d="M 444.0969780744193 454.4574336658344 L 455 453 L 446.2598380327552 446.32096048923734 L 433.7383709654966 447.34817456044846"></path></g><g transform="translate(-14,-230) scale(1,1)"><path fill="none" stroke="#000000" d="M 444.0969780744193 454.4574336658344 L 455 453 L 446.2598380327552 446.32096048923734 L 433.7383709654966 447.34817456044846 L 444.0969780744193 454.4574336658344" stroke-miterlimit="10"></path></g><g transform="translate(-14,-230) scale(1,1)"><path fill="none" stroke="#000000" d="M 222 377 L 463 401" stroke-miterlimit="10"></path></g><g transform="translate(-14,-230) scale(1,1)"><path fill="#000000" stroke="none" d="M 452.4702042056428 404.18172917281436 L 463 401 L 453.30448771530433 395.80413226329654 L 441.1082842867225 398.81991212813836"></path></g><g transform="translate(-14,-230) scale(1,1)"><path fill="none" stroke="#000000" d="M 452.4702042056428 404.18172917281436 L 463 401 L 453.30448771530433 395.80413226329654 L 441.1082842867225 398.81991212813836 L 452.4702042056428 404.18172917281436" stroke-miterlimit="10"></path></g><g transform="translate(-14,-230) scale(1,1)"><rect fill="#C0C0C0" stroke="none" x="799" y="319" width="76" height="37" opacity="0.2"></rect></g><g transform="translate(-14,-230) scale(1,1)"><rect fill="#ffffff" stroke="none" x="792" y="312" width="76" height="37"></rect></g><g transform="translate(-14,-230) scale(1,1)"><path fill="none" stroke="#000000" d="M 792 312 L 868 312 L 868 349 L 792 349 L 792 312 Z Z" stroke-miterlimit="10"></path></g><g transform="translate(-14,-230) scale(1,1)"><g><path fill="none" stroke="none"></path><text fill="#000000" stroke="none" font-family="Arial" font-size="13px" font-style="normal" font-weight="normal" text-decoration="none" x="796.5" y="329.5">«dataType»</text></g></g><g transform="translate(-14,-230) scale(1,1)"><g><path fill="none" stroke="none"></path><text fill="#000000" stroke="none" font-family="Arial" font-size="13px" font-style="normal" font-weight="bold" text-decoration="none" x="808" y="344.5">Usuario</text></g></g><g transform="translate(-14,-230) scale(1,1)"><rect fill="#C0C0C0" stroke="none" x="799" y="423" width="76" height="37" opacity="0.2"></rect></g><g transform="translate(-14,-230) scale(1,1)"><rect fill="#ffffff" stroke="none" x="792" y="416" width="76" height="37"></rect></g><g transform="translate(-14,-230) scale(1,1)"><path fill="none" stroke="#000000" d="M 792 416 L 868 416 L 868 453 L 792 453 L 792 416 Z Z" stroke-miterlimit="10"></path></g><g transform="translate(-14,-230) scale(1,1)"><g><path fill="none" stroke="none"></path><text fill="#000000" stroke="none" font-family="Arial" font-size="13px" font-style="normal" font-weight="normal" text-decoration="none" x="796.5" y="433.5">«dataType»</text></g></g><g transform="translate(-14,-230) scale(1,1)"><g><path fill="none" stroke="none"></path><text fill="#000000" stroke="none" font-family="Arial" font-size="13px" font-style="normal" font-weight="bold" text-decoration="none" x="804.5" y="448.5">Articulos</text></g></g><g transform="translate(-14,-230) scale(1,1)"><rect fill="#C0C0C0" stroke="none" x="799" y="671" width="76" height="37" opacity="0.2"></rect></g><g transform="translate(-14,-230) scale(1,1)"><rect fill="#ffffff" stroke="none" x="792" y="664" width="76" height="37"></rect></g><g transform="translate(-14,-230) scale(1,1)"><path fill="none" stroke="#000000" d="M 792 664 L 868 664 L 868 701 L 792 701 L 792 664 Z Z" stroke-miterlimit="10"></path></g><g transform="translate(-14,-230) scale(1,1)"><g><path fill="none" stroke="none"></path><text fill="#000000" stroke="none" font-family="Arial" font-size="13px" font-style="normal" font-weight="normal" text-decoration="none" x="796.5" y="681.5">«dataType»</text></g></g><g transform="translate(-14,-230) scale(1,1)"><g><path fill="none" stroke="none"></path><text fill="#000000" stroke="none" font-family="Arial" font-size="13px" font-style="normal" font-weight="bold" text-decoration="none" x="806.5" y="696.5">Seccion</text></g></g><g transform="translate(-14,-230) scale(1,1)"><rect fill="#C0C0C0" stroke="none" x="799" y="543" width="76" height="37" opacity="0.2"></rect></g><g transform="translate(-14,-230) scale(1,1)"><rect fill="#ffffff" stroke="none" x="792" y="536" width="76" height="37"></rect></g><g transform="translate(-14,-230) scale(1,1)"><path fill="none" stroke="#000000" d="M 792 536 L 868 536 L 868 573 L 792 573 L 792 536 Z Z" stroke-miterlimit="10"></path></g><g transform="translate(-14,-230) scale(1,1)"><g><path fill="none" stroke="none"></path><text fill="#000000" stroke="none" font-family="Arial" font-size="13px" font-style="normal" font-weight="normal" text-decoration="none" x="796.5" y="553.5">«dataType»</text></g></g><g transform="translate(-14,-230) scale(1,1)"><g><path fill="none" stroke="none"></path><text fill="#000000" stroke="none" font-family="Arial" font-size="13px" font-style="normal" font-weight="bold" text-decoration="none" x="800.5" y="568.5">Preguntas</text></g></g><g transform="translate(-14,-230) scale(1,1)"><path fill="none" stroke="#000000" d="M 791 330 L 514 326" stroke-miterlimit="10"></path></g><g transform="translate(-14,-230) scale(1,1)"><path fill="#FFFFFF" stroke="none" d="M 524.2223963549153 321.9376592015177 L 514 326 L 524.1008345086349 330.35581705643966 L 535.9977065714484 326.3176564125841"></path></g><g transform="translate(-14,-230) scale(1,1)"><path fill="none" stroke="#000000" d="M 524.2223963549153 321.9376592015177 L 514 326 L 524.1008345086349 330.35581705643966 L 535.9977065714484 326.3176564125841 L 524.2223963549153 321.9376592015177" stroke-miterlimit="10"></path></g><g transform="translate(-14,-230) scale(1,1)"><path fill="none" stroke="#000000" d="M 791 340 L 574 392" stroke-miterlimit="10"></path></g><g transform="translate(-14,-230) scale(1,1)"><path fill="#FFFFFF" stroke="none" d="M 582.9019216400401 385.5381278939779 L 574 392 L 584.863842742592 393.72537557193516 L 595.3943092005782 386.87325309479235"></path></g><g transform="translate(-14,-230) scale(1,1)"><path fill="none" stroke="#000000" d="M 582.9019216400401 385.5381278939779 L 574 392 L 584.863842742592 393.72537557193516 L 595.3943092005782 386.87325309479235 L 582.9019216400401 385.5381278939779" stroke-miterlimit="10"></path></g><g transform="translate(-14,-230) scale(1,1)"><path fill="none" stroke="#000000" d="M 791 437 L 521 459" stroke-miterlimit="10"></path></g><g transform="translate(-14,-230) scale(1,1)"><path fill="#FFFFFF" stroke="none" d="M 530.7872409823252 453.9790524844514 L 521 459 L 531.4709705039352 462.3702784314829 L 542.9273301046021 457.21332865814355"></path></g><g transform="translate(-14,-230) scale(1,1)"><path fill="none" stroke="#000000" d="M 530.7872409823252 453.9790524844514 L 521 459 L 531.4709705039352 462.3702784314829 L 542.9273301046021 457.21332865814355 L 530.7872409823252 453.9790524844514" stroke-miterlimit="10"></path></g><g transform="translate(-14,-230) scale(1,1)"><path fill="none" stroke="#000000" d="M 831 535 L 832 496 L 576 496 L 530 512" stroke-miterlimit="10"></path></g><g transform="translate(-14,-230) scale(1,1)"><path fill="#FFFFFF" stroke="none" d="M 538.2157004450845 504.68547566846354 L 530 512 L 540.9815272529 512.6372277409331 L 550.7789295275355 504.772546251292"></path></g><g transform="translate(-14,-230) scale(1,1)"><path fill="none" stroke="#000000" d="M 538.2157004450845 504.68547566846354 L 530 512 L 540.9815272529 512.6372277409331 L 550.7789295275355 504.772546251292 L 538.2157004450845 504.68547566846354" stroke-miterlimit="10"></path></g><g transform="translate(-14,-230) scale(1,1)"><path fill="none" stroke="#000000" d="M 791 684 L 541 700" stroke-miterlimit="10"></path></g><g transform="translate(-14,-230) scale(1,1)"><path fill="#FFFFFF" stroke="none" d="M 550.8730663443904 695.1499937155437 L 541 700 L 551.4107844957596 703.5518398306867 L 562.9550819412726 698.5948747557585"></path></g><g transform="translate(-14,-230) scale(1,1)"><path fill="none" stroke="#000000" d="M 550.8730663443904 695.1499937155437 L 541 700 L 551.4107844957596 703.5518398306867 L 562.9550819412726 698.5948747557585 L 550.8730663443904 695.1499937155437" stroke-miterlimit="10"></path></g><g transform="translate(-14,-230) scale(1,1)"><rect fill="#C0C0C0" stroke="none" x="943" y="519" width="49" height="44" opacity="0.2"></rect></g><g transform="translate(-14,-230) scale(1,1)"><rect fill="#ffffff" stroke="none" x="936" y="512" width="49" height="44"></rect></g><g transform="translate(-14,-230) scale(1,1)"><path fill="none" stroke="#000000" d="M 936 512 L 985 512 L 985 556 L 936 556 L 936 512 Z Z" stroke-miterlimit="10"></path></g><g transform="translate(-14,-230) scale(1,1)"><path fill="none" stroke="#000000" d="M 936 537 L 985 537" stroke-miterlimit="10"></path></g><g transform="translate(-14,-230) scale(1,1)"><path fill="none" stroke="#000000" d="M 936 547 L 985 547" stroke-miterlimit="10"></path></g><g transform="translate(-14,-230) scale(1,1)"><g><path fill="none" stroke="none"></path><text fill="#000000" stroke="none" font-family="Arial" font-size="13px" font-style="normal" font-weight="bold" text-decoration="none" x="946.5" y="531.5">DAO</text></g></g><g transform="translate(-14,-230) scale(1,1)"><path fill="none" stroke="#000000" d="M 843 350 L 945 511" stroke-miterlimit="10"></path></g><g transform="translate(-14,-230) scale(1,1)"><path fill="none" stroke="#000000" d="M 936.0052230932409 504.66801860413085 L 945 511 L 943.1171192373366 500.1623452706043" stroke-miterlimit="10"></path></g><g transform="translate(-14,-230) scale(1,1)"><path fill="none" stroke="#000000" d="M 856 454 L 935 515" stroke-miterlimit="10"></path></g><g transform="translate(-14,-230) scale(1,1)"><path fill="none" stroke="#000000" d="M 924.3834904638928 512.1208116994984 L 935 515 L 929.5288876860847 505.4571005428893" stroke-miterlimit="10"></path></g><g transform="translate(-14,-230) scale(1,1)"><path fill="none" stroke="#000000" d="M 869 548 L 935 538" stroke-miterlimit="10"></path></g><g transform="translate(-14,-230) scale(1,1)"><path fill="none" stroke="#000000" d="M 925.5826142085207 543.6844388337322 L 935 538 L 924.321397399223 535.3604078923672" stroke-miterlimit="10"></path></g><g transform="translate(-14,-230) scale(1,1)"><path fill="none" stroke="#000000" d="M 847 663 L 940 557" stroke-miterlimit="10"></path></g><g transform="translate(-14,-230) scale(1,1)"><path fill="none" stroke="#000000" d="M 936.4619170455917 567.4154677767119 L 940 557 L 930.1333496563943 561.8630454446803" stroke-miterlimit="10"></path></g><g transform="translate(-14,-230) scale(1,1)"><path fill="none" stroke="#000000" d="M 138 325 L 231 319" stroke-miterlimit="10"></path></g><g transform="translate(-14,-230) scale(1,1)"><path fill="#000000" stroke="none" d="M 221.12942789516464 323.85508046516696 L 231 319 L 220.58739121035424 315.45351185060605 L 209.04564320269392 320.4164101159552"></path></g><g transform="translate(-14,-230) scale(1,1)"><path fill="none" stroke="#000000" d="M 221.12942789516464 323.85508046516696 L 231 319 L 220.58739121035424 315.45351185060605 L 209.04564320269392 320.4164101159552 L 221.12942789516464 323.85508046516696" stroke-miterlimit="10"></path></g><g transform="translate(-14,-230) scale(1,1)"><path fill="none" stroke="#000000" d="M 122 595 L 175 556" stroke-miterlimit="10"></path></g><g transform="translate(-14,-230) scale(1,1)"><path fill="#FFFFFF" stroke="none" d="M 163.61899669996387 574.8274470888798 L 175 556 L 153.63939988086017 561.2654308988158"></path></g><g transform="translate(-14,-230) scale(1,1)"><path fill="none" stroke="#000000" d="M 163.61899669996387 574.8274470888798 L 175 556 L 153.63939988086017 561.2654308988158 L 163.61899669996387 574.8274470888798" stroke-miterlimit="10"></path></g><g transform="translate(-14,-230) scale(1,1)"><path fill="none" stroke="#000000" d="M 182 591 L 196 557" stroke-miterlimit="10"></path></g><g transform="translate(-14,-230) scale(1,1)"><path fill="#FFFFFF" stroke="none" d="M 196.0460248024506 578.9999518571645 L 196 557 L 180.47622930593693 572.5888595938942"></path></g><g transform="translate(-14,-230) scale(1,1)"><path fill="none" stroke="#000000" d="M 196.0460248024506 578.9999518571645 L 196 557 L 180.47622930593693 572.5888595938942 L 196.0460248024506 578.9999518571645" stroke-miterlimit="10"></path></g><g transform="translate(-14,-230) scale(1,1)"><path fill="none" stroke="#000000" d="M 231 591 L 216 557" stroke-miterlimit="10"></path></g><g transform="translate(-14,-230) scale(1,1)"><path fill="#FFFFFF" stroke="none" d="M 231.90685381983099 572.1977630444262 L 216 557 L 216.5014028957655 578.9942855109257"></path></g><g transform="translate(-14,-230) scale(1,1)"><path fill="none" stroke="#000000" d="M 231.90685381983099 572.1977630444262 L 216 557 L 216.5014028957655 578.9942855109257 L 231.90685381983099 572.1977630444262" stroke-miterlimit="10"></path></g><g transform="translate(-14,-230) scale(1,1)"><path fill="none" stroke="#000000" d="M 283 591 L 236 557" stroke-miterlimit="10"></path></g><g transform="translate(-14,-230) scale(1,1)"><path fill="#FFFFFF" stroke="none" d="M 257.4026577942217 562.0917815490693 L 236 557 L 247.53353120004184 575.7343977233767"></path></g><g transform="translate(-14,-230) scale(1,1)"><path fill="none" stroke="#000000" d="M 257.4026577942217 562.0917815490693 L 236 557 L 247.53353120004184 575.7343977233767 L 257.4026577942217 562.0917815490693" stroke-miterlimit="10"></path></g><g transform="translate(-14,-230) scale(1,1)"><path fill="none" stroke="#000000" d="M 126 797 L 176 839" stroke-miterlimit="10"></path></g><g transform="translate(-14,-230) scale(1,1)"><path fill="#FFFFFF" stroke="none" d="M 155.02172382782877 832.3733923577661 L 176 839 L 165.8518378611397 819.4803994609674"></path></g><g transform="translate(-14,-230) scale(1,1)"><path fill="none" stroke="#000000" d="M 155.02172382782877 832.3733923577661 L 176 839 L 165.8518378611397 819.4803994609674 L 155.02172382782877 832.3733923577661" stroke-miterlimit="10"></path></g><g transform="translate(-14,-230) scale(1,1)"><path fill="none" stroke="#000000" d="M 189 813 L 197 839" stroke-miterlimit="10"></path></g><g transform="translate(-14,-230) scale(1,1)"><path fill="#FFFFFF" stroke="none" d="M 182.97586485998687 822.0493766021822 L 197 839 L 199.06933969215652 817.0975381922839"></path></g><g transform="translate(-14,-230) scale(1,1)"><path fill="none" stroke="#000000" d="M 182.97586485998687 822.0493766021822 L 197 839 L 199.06933969215652 817.0975381922839 L 182.97586485998687 822.0493766021822" stroke-miterlimit="10"></path></g><g transform="translate(-14,-230) scale(1,1)"><path fill="none" stroke="#000000" d="M 245 813 L 222 839" stroke-miterlimit="10"></path></g><g transform="translate(-14,-230) scale(1,1)"><path fill="#FFFFFF" stroke="none" d="M 229.16121720996992 818.198149888252 L 222 839 L 241.7728745259627 829.3546159754763"></path></g><g transform="translate(-14,-230) scale(1,1)"><path fill="none" stroke="#000000" d="M 229.16121720996992 818.198149888252 L 222 839 L 241.7728745259627 829.3546159754763 L 229.16121720996992 818.198149888252" stroke-miterlimit="10"></path></g><g transform="translate(-14,-230) scale(1,1)"><path fill="none" stroke="#000000" d="M 311 804 L 239 843" stroke-miterlimit="10"></path></g><g transform="translate(-14,-230) scale(1,1)"><path fill="#FFFFFF" stroke="none" d="M 252.86207198032136 825.9165881507121 L 239 843 L 260.8817614630153 840.7221687341472"></path></g><g transform="translate(-14,-230) scale(1,1)"><path fill="none" stroke="#000000" d="M 252.86207198032136 825.9165881507121 L 239 843 L 260.8817614630153 840.7221687341472 L 252.86207198032136 825.9165881507121" stroke-miterlimit="10"></path></g><g transform="translate(-14,-230) scale(1,1)"><path fill="none" stroke="#000000" d="M 463 344 L 376 408 L 115 428" stroke-miterlimit="10"></path></g><g transform="translate(-14,-230) scale(1,1)"><path fill="none" stroke="#000000" d="M 124.81134297546768 423.02631434268903 L 115 428 L 125.45459400627506 431.4207402947253" stroke-miterlimit="10"></path></g><g transform="translate(-14,-230) scale(1,1)"><path fill="none" stroke="#000000" d="M 463 395 L 138 331" stroke-miterlimit="10"></path></g><g transform="translate(-14,-230) scale(1,1)"><path fill="none" stroke="#000000" d="M 148.78451023532133 328.83335767043815 L 138 331 L 147.15784780281047 337.0937528355324" stroke-miterlimit="10"></path></g><g transform="translate(-14,-230) scale(1,1)"><path fill="none" stroke="#000000" d="M 239 856 L 480 816 L 504 725" stroke-miterlimit="10"></path></g><g transform="translate(-14,-230) scale(1,1)"><path fill="none" stroke="#000000" d="M 505.4786898344307 735.9001594655102 L 504 725 L 497.33801493512055 733.7531682832746" stroke-miterlimit="10"></path></g><g transform="translate(-14,-230) scale(1,1)"><path fill="none" stroke="#000000" d="M 236 540 L 496 592 L 507 679" stroke-miterlimit="10"></path></g><g transform="translate(-14,-230) scale(1,1)"><path fill="none" stroke="#000000" d="M 501.5489445801732 669.4456295440266 L 507 679 L 509.901481887404 668.3895616086296" stroke-miterlimit="10"></path></g></g></svg>