<svg version="1.1" xmlns="http://www.w3.org/2000/svg" xmlns:xlink="http://www.w3.org/1999/xlink" width="816" height="359"><defs></defs><g><g transform="translate(-30,-142) scale(1,1)"><rect fill="#C0C0C0" stroke="none" x="47" y="423" width="158" height="75" opacity="0.2"></rect></g><g transform="translate(-30,-142) scale(1,1)"><rect fill="#ffffff" stroke="none" x="40" y="416" width="158" height="75"></rect></g><g transform="translate(-30,-142) scale(1,1)"><path fill="none" stroke="#000000" d="M 40 416 L 198 416 L 198 491 L 40 491 L 40 416 Z Z" stroke-miterlimit="10"></path></g><g transform="translate(-30,-142) scale(1,1)"><path fill="none" stroke="#000000" d="M 40 439 L 198 439" stroke-miterlimit="10"></path></g><g transform="translate(-30,-142) scale(1,1)"><path fill="none" stroke="#000000" d="M 68 439 L 68 491" stroke-miterlimit="10"></path></g><g transform="translate(-30,-142) scale(1,1)"><path fill="none" stroke="#000000" d="M 144 439 L 144 491" stroke-miterlimit="10"></path></g><g transform="translate(-30,-142) scale(1,1)"><g><path fill="none" stroke="none"></path><text fill="#000000" stroke="none" font-family="Arial" font-size="13px" font-style="normal" font-weight="bold" text-decoration="none" x="98" y="433.5">usuario</text></g></g><g transform="translate(-30,-142) scale(1,1)"><g><path fill="none" stroke="none"></path><text fill="#000000" stroke="none" font-family="Arial" font-size="13px" font-style="normal" font-weight="normal" text-decoration="none" x="45" y="457">PK</text></g></g><g transform="translate(-30,-142) scale(1,1)"><g><path fill="none" stroke="none"></path><text fill="#000000" stroke="none" font-family="Arial" font-size="13px" font-style="normal" font-weight="normal" text-decoration="none" x="73" y="457">usuario_id</text></g></g><g transform="translate(-30,-142) scale(1,1)"><g><path fill="none" stroke="none"></path><text fill="#000000" stroke="none" font-family="Arial" font-size="13px" font-style="normal" font-weight="normal" text-decoration="none" x="149" y="457">integer</text></g></g><g transform="translate(-30,-142) scale(1,1)"><g><path fill="none" stroke="none"></path><text fill="#000000" stroke="none" font-family="Arial" font-size="13px" font-style="normal" font-weight="normal" text-decoration="none" x="45" y="472"></text></g></g><g transform="translate(-30,-142) scale(1,1)"><g><path fill="none" stroke="none"></path><text fill="#000000" stroke="none" font-family="Arial" font-size="13px" font-style="normal" font-weight="normal" text-decoration="none" x="73" y="472">Nombre</text></g></g><g transform="translate(-30,-142) scale(1,1)"><g><path fill="none" stroke="none"></path><text fill="#000000" stroke="none" font-family="Arial" font-size="13px" font-style="normal" font-weight="normal" text-decoration="none" x="149" y="472">string</text></g></g><g transform="translate(-30,-142) scale(1,1)"><g><path fill="none" stroke="none"></path><text fill="#000000" stroke="none" font-family="Arial" font-size="13px" font-style="normal" font-weight="normal" text-decoration="none" x="45" y="487"></text></g></g><g transform="translate(-30,-142) scale(1,1)"><g><path fill="none" stroke="none"></path><text fill="#000000" stroke="none" font-family="Arial" font-size="13px" font-style="normal" font-weight="normal" text-decoration="none" x="73" y="487">Correo</text></g></g><g transform="translate(-30,-142) scale(1,1)"><g><path fill="none" stroke="none"></path><text fill="#000000" stroke="none" font-family="Arial" font-size="13px" font-style="normal" font-weight="normal" text-decoration="none" x="149" y="487">pass</text></g></g><g transform="translate(-30,-142) scale(1,1)"><rect fill="#C0C0C0" stroke="none" x="607" y="303" width="236" height="75" opacity="0.2"></rect></g><g transform="translate(-30,-142) scale(1,1)"><rect fill="#ffffff" stroke="none" x="600" y="296" width="236" height="75"></rect></g><g transform="translate(-30,-142) scale(1,1)"><path fill="none" stroke="#000000" d="M 600 296 L 836 296 L 836 371 L 600 371 L 600 296 Z Z" stroke-miterlimit="10"></path></g><g transform="translate(-30,-142) scale(1,1)"><path fill="none" stroke="#000000" d="M 600 319 L 836 319" stroke-miterlimit="10"></path></g><g transform="translate(-30,-142) scale(1,1)"><path fill="none" stroke="#000000" d="M 628 319 L 628 371" stroke-miterlimit="10"></path></g><g transform="translate(-30,-142) scale(1,1)"><path fill="none" stroke="#000000" d="M 782 319 L 782 371" stroke-miterlimit="10"></path></g><g transform="translate(-30,-142) scale(1,1)"><g><path fill="none" stroke="none"></path><text fill="#000000" stroke="none" font-family="Arial" font-size="13px" font-style="normal" font-weight="bold" text-decoration="none" x="689.5" y="313.5">preguntas</text></g></g><g transform="translate(-30,-142) scale(1,1)"><g><path fill="none" stroke="none"></path><text fill="#000000" stroke="none" font-family="Arial" font-size="13px" font-style="normal" font-weight="normal" text-decoration="none" x="605" y="337">PK</text></g></g><g transform="translate(-30,-142) scale(1,1)"><g><path fill="none" stroke="none"></path><text fill="#000000" stroke="none" font-family="Arial" font-size="13px" font-style="normal" font-weight="normal" text-decoration="none" x="633" y="337">id_pregunta</text></g></g><g transform="translate(-30,-142) scale(1,1)"><g><path fill="none" stroke="none"></path><text fill="#000000" stroke="none" font-family="Arial" font-size="13px" font-style="normal" font-weight="normal" text-decoration="none" x="787" y="337">integer</text></g></g><g transform="translate(-30,-142) scale(1,1)"><g><path fill="none" stroke="none"></path><text fill="#000000" stroke="none" font-family="Arial" font-size="13px" font-style="normal" font-weight="normal" text-decoration="none" x="605" y="352"></text></g></g><g transform="translate(-30,-142) scale(1,1)"><g><path fill="none" stroke="none"></path><text fill="#000000" stroke="none" font-family="Arial" font-size="13px" font-style="normal" font-weight="normal" text-decoration="none" x="633" y="352">pregunta</text></g></g><g transform="translate(-30,-142) scale(1,1)"><g><path fill="none" stroke="none"></path><text fill="#000000" stroke="none" font-family="Arial" font-size="13px" font-style="normal" font-weight="normal" text-decoration="none" x="787" y="352">string</text></g></g><g transform="translate(-30,-142) scale(1,1)"><g><path fill="none" stroke="none"></path><text fill="#000000" stroke="none" font-family="Arial" font-size="13px" font-style="normal" font-weight="normal" text-decoration="none" x="605" y="367">FK</text></g></g><g transform="translate(-30,-142) scale(1,1)"><g><path fill="none" stroke="none"></path><text fill="#000000" stroke="none" font-family="Arial" font-size="13px" font-style="normal" font-weight="normal" text-decoration="none" x="633" y="367">categoria_actividad_id</text></g></g><g transform="translate(-30,-142) scale(1,1)"><g><path fill="none" stroke="none"></path><text fill="#000000" stroke="none" font-family="Arial" font-size="13px" font-style="normal" font-weight="normal" text-decoration="none" x="787" y="367">integer</text></g></g><g transform="translate(-30,-142) scale(1,1)"><rect fill="#C0C0C0" stroke="none" x="287" y="303" width="236" height="60" opacity="0.2"></rect></g><g transform="translate(-30,-142) scale(1,1)"><rect fill="#ffffff" stroke="none" x="280" y="296" width="236" height="60"></rect></g><g transform="translate(-30,-142) scale(1,1)"><path fill="none" stroke="#000000" d="M 280 296 L 516 296 L 516 356 L 280 356 L 280 296 Z Z" stroke-miterlimit="10"></path></g><g transform="translate(-30,-142) scale(1,1)"><path fill="none" stroke="#000000" d="M 280 319 L 516 319" stroke-miterlimit="10"></path></g><g transform="translate(-30,-142) scale(1,1)"><path fill="none" stroke="#000000" d="M 308 319 L 308 356" stroke-miterlimit="10"></path></g><g transform="translate(-30,-142) scale(1,1)"><path fill="none" stroke="#000000" d="M 462 319 L 462 356" stroke-miterlimit="10"></path></g><g transform="translate(-30,-142) scale(1,1)"><g><path fill="none" stroke="none"></path><text fill="#000000" stroke="none" font-family="Arial" font-size="13px" font-style="normal" font-weight="bold" text-decoration="none" x="343" y="313.5">categoria_actividad</text></g></g><g transform="translate(-30,-142) scale(1,1)"><g><path fill="none" stroke="none"></path><text fill="#000000" stroke="none" font-family="Arial" font-size="13px" font-style="normal" font-weight="normal" text-decoration="none" x="285" y="337">PK</text></g></g><g transform="translate(-30,-142) scale(1,1)"><g><path fill="none" stroke="none"></path><text fill="#000000" stroke="none" font-family="Arial" font-size="13px" font-style="normal" font-weight="normal" text-decoration="none" x="313" y="337">categoria_actividad_id</text></g></g><g transform="translate(-30,-142) scale(1,1)"><g><path fill="none" stroke="none"></path><text fill="#000000" stroke="none" font-family="Arial" font-size="13px" font-style="normal" font-weight="normal" text-decoration="none" x="467" y="337">integer</text></g></g><g transform="translate(-30,-142) scale(1,1)"><g><path fill="none" stroke="none"></path><text fill="#000000" stroke="none" font-family="Arial" font-size="13px" font-style="normal" font-weight="normal" text-decoration="none" x="285" y="352"></text></g></g><g transform="translate(-30,-142) scale(1,1)"><g><path fill="none" stroke="none"></path><text fill="#000000" stroke="none" font-family="Arial" font-size="13px" font-style="normal" font-weight="normal" text-decoration="none" x="313" y="352">nombre_actividad</text></g></g><g transform="translate(-30,-142) scale(1,1)"><g><path fill="none" stroke="none"></path><text fill="#000000" stroke="none" font-family="Arial" font-size="13px" font-style="normal" font-weight="normal" text-decoration="none" x="467" y="352">string</text></g></g><g transform="translate(-30,-142) scale(1,1)"><rect fill="#C0C0C0" stroke="none" x="271" y="431" width="257" height="60" opacity="0.2"></rect></g><g transform="translate(-30,-142) scale(1,1)"><rect fill="#ffffff" stroke="none" x="264" y="424" width="257" height="60"></rect></g><g transform="translate(-30,-142) scale(1,1)"><path fill="none" stroke="#000000" d="M 264 424 L 521 424 L 521 484 L 264 484 L 264 424 Z Z" stroke-miterlimit="10"></path></g><g transform="translate(-30,-142) scale(1,1)"><path fill="none" stroke="#000000" d="M 264 447 L 521 447" stroke-miterlimit="10"></path></g><g transform="translate(-30,-142) scale(1,1)"><path fill="none" stroke="#000000" d="M 313 447 L 313 484" stroke-miterlimit="10"></path></g><g transform="translate(-30,-142) scale(1,1)"><path fill="none" stroke="#000000" d="M 467 447 L 467 484" stroke-miterlimit="10"></path></g><g transform="translate(-30,-142) scale(1,1)"><g><path fill="none" stroke="none"></path><text fill="#000000" stroke="none" font-family="Arial" font-size="13px" font-style="normal" font-weight="bold" text-decoration="none" x="313" y="441.5">usuario_categoria_actividad</text></g></g><g transform="translate(-30,-142) scale(1,1)"><g><path fill="none" stroke="none"></path><text fill="#000000" stroke="none" font-family="Arial" font-size="13px" font-style="normal" font-weight="normal" text-decoration="none" x="269" y="465">PK,FK</text></g></g><g transform="translate(-30,-142) scale(1,1)"><g><path fill="none" stroke="none"></path><text fill="#000000" stroke="none" font-family="Arial" font-size="13px" font-style="normal" font-weight="normal" text-decoration="none" x="318" y="465">usuario_id</text></g></g><g transform="translate(-30,-142) scale(1,1)"><g><path fill="none" stroke="none"></path><text fill="#000000" stroke="none" font-family="Arial" font-size="13px" font-style="normal" font-weight="normal" text-decoration="none" x="472" y="465">integer</text></g></g><g transform="translate(-30,-142) scale(1,1)"><g><path fill="none" stroke="none"></path><text fill="#000000" stroke="none" font-family="Arial" font-size="13px" font-style="normal" font-weight="normal" text-decoration="none" x="269" y="480">PK,FK</text></g></g><g transform="translate(-30,-142) scale(1,1)"><g><path fill="none" stroke="none"></path><text fill="#000000" stroke="none" font-family="Arial" font-size="13px" font-style="normal" font-weight="normal" text-decoration="none" x="318" y="480">categoria_actividad_id</text></g></g><g transform="translate(-30,-142) scale(1,1)"><g><path fill="none" stroke="none"></path><text fill="#000000" stroke="none" font-family="Arial" font-size="13px" font-style="normal" font-weight="normal" text-decoration="none" x="472" y="480">integer</text></g></g><g transform="translate(-30,-142) scale(1,1)"><path fill="none" stroke="#000000" d="M 198 456 L 264 456" stroke-miterlimit="10"></path></g><g transform="translate(-30,-142) scale(1,1)"><path fill="none" stroke="#000000" d="M 250 456 L 264 463" stroke-miterlimit="10"></path></g><g transform="translate(-30,-142) scale(1,1)"><path fill="none" stroke="#000000" d="M 250 456 L 264 449" stroke-miterlimit="10"></path></g><g transform="translate(-30,-142) scale(1,1)"><path fill="#FFFFFF" stroke="none" d="M 235 456 C 235 452.1340064 238.1340064 449 242 449 C 245.8659936 449 249 452.1340064 249 456 C 249 459.8659936 245.8659936 463 242 463 C 238.1340064 463 235 459.8659936 235 456 Z"></path></g><g transform="translate(-30,-142) scale(1,1)"><path fill="none" stroke="#000000" d="M 235 456 C 235 452.1340064 238.1340064 449 242 449 C 245.8659936 449 249 452.1340064 249 456 C 249 459.8659936 245.8659936 463 242 463 C 238.1340064 463 235 459.8659936 235 456 Z" stroke-miterlimit="10"></path></g><g transform="translate(-30,-142) scale(1,1)"><path fill="none" stroke="#000000" d="M 205 449 L 205 463" stroke-miterlimit="10"></path></g><g transform="translate(-30,-142) scale(1,1)"><g><path fill="none" stroke="none"></path><text fill="#000000" stroke="none" font-family="Arial" font-size="13px" font-style="normal" font-weight="normal" text-decoration="none" x="222.5" y="447.5"></text></g></g><g transform="translate(-30,-142) scale(1,1)"><g><path fill="none" stroke="none"></path><text fill="#000000" stroke="none" font-family="Arial" font-size="13px" font-style="normal" font-weight="normal" text-decoration="none" x="237.5" y="447.5"></text></g></g><g transform="translate(-30,-142) scale(1,1)"><path fill="none" stroke="#000000" d="M 360 356 L 360 424" stroke-miterlimit="10"></path></g><g transform="translate(-30,-142) scale(1,1)"><path fill="none" stroke="#000000" d="M 360 410 L 353 424" stroke-miterlimit="10"></path></g><g transform="translate(-30,-142) scale(1,1)"><path fill="none" stroke="#000000" d="M 360 410 L 367 424" stroke-miterlimit="10"></path></g><g transform="translate(-30,-142) scale(1,1)"><path fill="#FFFFFF" stroke="none" d="M 353 402 C 353 398.1340064 356.1340064 395 360 395 C 363.8659936 395 367 398.1340064 367 402 C 367 405.8659936 363.8659936 409 360 409 C 356.1340064 409 353 405.8659936 353 402 Z"></path></g><g transform="translate(-30,-142) scale(1,1)"><path fill="none" stroke="#000000" d="M 353 402 C 353 398.1340064 356.1340064 395 360 395 C 363.8659936 395 367 398.1340064 367 402 C 367 405.8659936 363.8659936 409 360 409 C 356.1340064 409 353 405.8659936 353 402 Z" stroke-miterlimit="10"></path></g><g transform="translate(-30,-142) scale(1,1)"><path fill="none" stroke="#000000" d="M 367 363 L 353 363" stroke-miterlimit="10"></path></g><g transform="translate(-30,-142) scale(1,1)"><g><path fill="none" stroke="none"></path><text fill="#000000" stroke="none" font-family="Arial" font-size="13px" font-style="normal" font-weight="normal" text-decoration="none" x="374.5" y="387.5"></text></g></g><g transform="translate(-30,-142) scale(1,1)"><g><path fill="none" stroke="none"></path><text fill="#000000" stroke="none" font-family="Arial" font-size="13px" font-style="normal" font-weight="normal" text-decoration="none" x="374.5" y="404.5"></text></g></g><g transform="translate(-30,-142) scale(1,1)"><rect fill="#C0C0C0" stroke="none" x="295" y="167" width="236" height="90" opacity="0.2"></rect></g><g transform="translate(-30,-142) scale(1,1)"><rect fill="#ffffff" stroke="none" x="288" y="160" width="236" height="90"></rect></g><g transform="translate(-30,-142) scale(1,1)"><path fill="none" stroke="#000000" d="M 288 160 L 524 160 L 524 250 L 288 250 L 288 160 Z Z" stroke-miterlimit="10"></path></g><g transform="translate(-30,-142) scale(1,1)"><path fill="none" stroke="#000000" d="M 288 183 L 524 183" stroke-miterlimit="10"></path></g><g transform="translate(-30,-142) scale(1,1)"><path fill="none" stroke="#000000" d="M 316 183 L 316 250" stroke-miterlimit="10"></path></g><g transform="translate(-30,-142) scale(1,1)"><path fill="none" stroke="#000000" d="M 451 183 L 451 250" stroke-miterlimit="10"></path></g><g transform="translate(-30,-142) scale(1,1)"><g><path fill="none" stroke="none"></path><text fill="#000000" stroke="none" font-family="Arial" font-size="13px" font-style="normal" font-weight="bold" text-decoration="none" x="381" y="177.5">actividad</text></g></g><g transform="translate(-30,-142) scale(1,1)"><g><path fill="none" stroke="none"></path><text fill="#000000" stroke="none" font-family="Arial" font-size="13px" font-style="normal" font-weight="normal" text-decoration="none" x="293" y="201">PK</text></g></g><g transform="translate(-30,-142) scale(1,1)"><g><path fill="none" stroke="none"></path><text fill="#000000" stroke="none" font-family="Arial" font-size="13px" font-style="normal" font-weight="normal" text-decoration="none" x="321" y="201">id_actividad</text></g></g><g transform="translate(-30,-142) scale(1,1)"><g><path fill="none" stroke="none"></path><text fill="#000000" stroke="none" font-family="Arial" font-size="13px" font-style="normal" font-weight="normal" text-decoration="none" x="456" y="201">integer</text></g></g><g transform="translate(-30,-142) scale(1,1)"><g><path fill="none" stroke="none"></path><text fill="#000000" stroke="none" font-family="Arial" font-size="13px" font-style="normal" font-weight="normal" text-decoration="none" x="293" y="216"></text></g></g><g transform="translate(-30,-142) scale(1,1)"><g><path fill="none" stroke="none"></path><text fill="#000000" stroke="none" font-family="Arial" font-size="13px" font-style="normal" font-weight="normal" text-decoration="none" x="321" y="216">nombre</text></g></g><g transform="translate(-30,-142) scale(1,1)"><g><path fill="none" stroke="none"></path><text fill="#000000" stroke="none" font-family="Arial" font-size="13px" font-style="normal" font-weight="normal" text-decoration="none" x="456" y="216">string</text></g></g><g transform="translate(-30,-142) scale(1,1)"><g><path fill="none" stroke="none"></path><text fill="#000000" stroke="none" font-family="Arial" font-size="13px" font-style="normal" font-weight="normal" text-decoration="none" x="293" y="231">FK</text></g></g><g transform="translate(-30,-142) scale(1,1)"><g><path fill="none" stroke="none"></path><text fill="#000000" stroke="none" font-family="Arial" font-size="13px" font-style="normal" font-weight="normal" text-decoration="none" x="321" y="231">categoria_actividad</text></g></g><g transform="translate(-30,-142) scale(1,1)"><g><path fill="none" stroke="none"></path><text fill="#000000" stroke="none" font-family="Arial" font-size="13px" font-style="normal" font-weight="normal" text-decoration="none" x="456" y="231">integer</text></g></g><g transform="translate(-30,-142) scale(1,1)"><path fill="none" stroke="#000000" d="M 516 334 L 600 334" stroke-miterlimit="10"></path></g><g transform="translate(-30,-142) scale(1,1)"><path fill="none" stroke="#000000" d="M 586 334 L 600 341" stroke-miterlimit="10"></path></g><g transform="translate(-30,-142) scale(1,1)"><path fill="none" stroke="#000000" d="M 586 334 L 600 327" stroke-miterlimit="10"></path></g><g transform="translate(-30,-142) scale(1,1)"><path fill="#FFFFFF" stroke="none" d="M 571 334 C 571 330.1340064 574.1340064 327 578 327 C 581.8659936 327 585 330.1340064 585 334 C 585 337.8659936 581.8659936 341 578 341 C 574.1340064 341 571 337.8659936 571 334 Z"></path></g><g transform="translate(-30,-142) scale(1,1)"><path fill="none" stroke="#000000" d="M 571 334 C 571 330.1340064 574.1340064 327 578 327 C 581.8659936 327 585 330.1340064 585 334 C 585 337.8659936 581.8659936 341 578 341 C 574.1340064 341 571 337.8659936 571 334 Z" stroke-miterlimit="10"></path></g><g transform="translate(-30,-142) scale(1,1)"><path fill="none" stroke="#000000" d="M 523 327 L 523 341" stroke-miterlimit="10"></path></g><g transform="translate(-30,-142) scale(1,1)"><g><path fill="none" stroke="none"></path><text fill="#000000" stroke="none" font-family="Arial" font-size="13px" font-style="normal" font-weight="normal" text-decoration="none" x="540.5" y="325.5"></text></g></g><g transform="translate(-30,-142) scale(1,1)"><g><path fill="none" stroke="none"></path><text fill="#000000" stroke="none" font-family="Arial" font-size="13px" font-style="normal" font-weight="normal" text-decoration="none" x="573.5" y="325.5"></text></g></g><g transform="translate(-30,-142) scale(1,1)"><path fill="none" stroke="#000000" d="M 360 296 L 360 250" stroke-miterlimit="10"></path></g><g transform="translate(-30,-142) scale(1,1)"><path fill="none" stroke="#000000" d="M 360 264 L 367 250" stroke-miterlimit="10"></path></g><g transform="translate(-30,-142) scale(1,1)"><path fill="none" stroke="#000000" d="M 360 264 L 353 250" stroke-miterlimit="10"></path></g><g transform="translate(-30,-142) scale(1,1)"><path fill="#FFFFFF" stroke="none" d="M 353 272 C 353 268.1340064 356.1340064 265 360 265 C 363.8659936 265 367 268.1340064 367 272 C 367 275.8659936 363.8659936 279 360 279 C 356.1340064 279 353 275.8659936 353 272 Z"></path></g><g transform="translate(-30,-142) scale(1,1)"><path fill="none" stroke="#000000" d="M 353 272 C 353 268.1340064 356.1340064 265 360 265 C 363.8659936 265 367 268.1340064 367 272 C 367 275.8659936 363.8659936 279 360 279 C 356.1340064 279 353 275.8659936 353 272 Z" stroke-miterlimit="10"></path></g><g transform="translate(-30,-142) scale(1,1)"><path fill="none" stroke="#000000" d="M 353 289 L 367 289" stroke-miterlimit="10"></path></g><g transform="translate(-30,-142) scale(1,1)"><g><path fill="none" stroke="none"></path><text fill="#000000" stroke="none" font-family="Arial" font-size="13px" font-style="normal" font-weight="normal" text-decoration="none" x="344.5" y="276.5"></text></g></g><g transform="translate(-30,-142) scale(1,1)"><g><path fill="none" stroke="none"></path><text fill="#000000" stroke="none" font-family="Arial" font-size="13px" font-style="normal" font-weight="normal" text-decoration="none" x="344.5" y="281.5"></text></g></g><g transform="translate(-30,-142) scale(1,1)"><rect fill="#C0C0C0" stroke="none" x="55" y="159" width="169" height="150" opacity="0.2"></rect></g><g transform="translate(-30,-142) scale(1,1)"><rect fill="#ffffff" stroke="none" x="48" y="152" width="169" height="150"></rect></g><g transform="translate(-30,-142) scale(1,1)"><path fill="none" stroke="#000000" d="M 48 152 L 217 152 L 217 302 L 48 302 L 48 152 Z Z" stroke-miterlimit="10"></path></g><g transform="translate(-30,-142) scale(1,1)"><path fill="none" stroke="#000000" d="M 48 175 L 217 175" stroke-miterlimit="10"></path></g><g transform="translate(-30,-142) scale(1,1)"><path fill="none" stroke="#000000" d="M 76 175 L 76 302" stroke-miterlimit="10"></path></g><g transform="translate(-30,-142) scale(1,1)"><path fill="none" stroke="#000000" d="M 163 175 L 163 302" stroke-miterlimit="10"></path></g><g transform="translate(-30,-142) scale(1,1)"><g><path fill="none" stroke="none"></path><text fill="#000000" stroke="none" font-family="Arial" font-size="13px" font-style="normal" font-weight="bold" text-decoration="none" x="108" y="169.5">articulos</text></g></g><g transform="translate(-30,-142) scale(1,1)"><g><path fill="none" stroke="none"></path><text fill="#000000" stroke="none" font-family="Arial" font-size="13px" font-style="normal" font-weight="normal" text-decoration="none" x="53" y="193">PK</text></g></g><g transform="translate(-30,-142) scale(1,1)"><g><path fill="none" stroke="none"></path><text fill="#000000" stroke="none" font-family="Arial" font-size="13px" font-style="normal" font-weight="normal" text-decoration="none" x="81" y="193">id_articulo</text></g></g><g transform="translate(-30,-142) scale(1,1)"><g><path fill="none" stroke="none"></path><text fill="#000000" stroke="none" font-family="Arial" font-size="13px" font-style="normal" font-weight="normal" text-decoration="none" x="168" y="193">integer</text></g></g><g transform="translate(-30,-142) scale(1,1)"><g><path fill="none" stroke="none"></path><text fill="#000000" stroke="none" font-family="Arial" font-size="13px" font-style="normal" font-weight="normal" text-decoration="none" x="53" y="208"></text></g></g><g transform="translate(-30,-142) scale(1,1)"><g><path fill="none" stroke="none"></path><text fill="#000000" stroke="none" font-family="Arial" font-size="13px" font-style="normal" font-weight="normal" text-decoration="none" x="81" y="208">titulo</text></g></g><g transform="translate(-30,-142) scale(1,1)"><g><path fill="none" stroke="none"></path><text fill="#000000" stroke="none" font-family="Arial" font-size="13px" font-style="normal" font-weight="normal" text-decoration="none" x="168" y="208">string</text></g></g><g transform="translate(-30,-142) scale(1,1)"><g><path fill="none" stroke="none"></path><text fill="#000000" stroke="none" font-family="Arial" font-size="13px" font-style="normal" font-weight="normal" text-decoration="none" x="53" y="223"></text></g></g><g transform="translate(-30,-142) scale(1,1)"><g><path fill="none" stroke="none"></path><text fill="#000000" stroke="none" font-family="Arial" font-size="13px" font-style="normal" font-weight="normal" text-decoration="none" x="81" y="223">descripcion</text></g></g><g transform="translate(-30,-142) scale(1,1)"><g><path fill="none" stroke="none"></path><text fill="#000000" stroke="none" font-family="Arial" font-size="13px" font-style="normal" font-weight="normal" text-decoration="none" x="168" y="223">text</text></g></g><g transform="translate(-30,-142) scale(1,1)"><g><path fill="none" stroke="none"></path><text fill="#000000" stroke="none" font-family="Arial" font-size="13px" font-style="normal" font-weight="normal" text-decoration="none" x="53" y="238"></text></g></g><g transform="translate(-30,-142) scale(1,1)"><g><path fill="none" stroke="none"></path><text fill="#000000" stroke="none" font-family="Arial" font-size="13px" font-style="normal" font-weight="normal" text-decoration="none" x="81" y="238">link</text></g></g><g transform="translate(-30,-142) scale(1,1)"><g><path fill="none" stroke="none"></path><text fill="#000000" stroke="none" font-family="Arial" font-size="13px" font-style="normal" font-weight="normal" text-decoration="none" x="168" y="238">string</text></g></g><g transform="translate(-30,-142) scale(1,1)"><g><path fill="none" stroke="none"></path><text fill="#000000" stroke="none" font-family="Arial" font-size="13px" font-style="normal" font-weight="normal" text-decoration="none" x="53" y="253"></text></g></g><g transform="translate(-30,-142) scale(1,1)"><g><path fill="none" stroke="none"></path><text fill="#000000" stroke="none" font-family="Arial" font-size="13px" font-style="normal" font-weight="normal" text-decoration="none" x="81" y="253">imagen</text></g></g><g transform="translate(-30,-142) scale(1,1)"><g><path fill="none" stroke="none"></path><text fill="#000000" stroke="none" font-family="Arial" font-size="13px" font-style="normal" font-weight="normal" text-decoration="none" x="168" y="253">blob</text></g></g><g transform="translate(-30,-142) scale(1,1)"><g><path fill="none" stroke="none"></path><text fill="#000000" stroke="none" font-family="Arial" font-size="13px" font-style="normal" font-weight="normal" text-decoration="none" x="53" y="268"></text></g></g><g transform="translate(-30,-142) scale(1,1)"><g><path fill="none" stroke="none"></path><text fill="#000000" stroke="none" font-family="Arial" font-size="13px" font-style="normal" font-weight="normal" text-decoration="none" x="81" y="268">calficacion</text></g></g><g transform="translate(-30,-142) scale(1,1)"><g><path fill="none" stroke="none"></path><text fill="#000000" stroke="none" font-family="Arial" font-size="13px" font-style="normal" font-weight="normal" text-decoration="none" x="168" y="268">integer</text></g></g><g transform="translate(-30,-142) scale(1,1)"><g><path fill="none" stroke="none"></path><text fill="#000000" stroke="none" font-family="Arial" font-size="13px" font-style="normal" font-weight="normal" text-decoration="none" x="53" y="283">FK</text></g></g><g transform="translate(-30,-142) scale(1,1)"><g><path fill="none" stroke="none"></path><text fill="#000000" stroke="none" font-family="Arial" font-size="13px" font-style="normal" font-weight="normal" text-decoration="none" x="81" y="283">usuario_id</text></g></g><g transform="translate(-30,-142) scale(1,1)"><g><path fill="none" stroke="none"></path><text fill="#000000" stroke="none" font-family="Arial" font-size="13px" font-style="normal" font-weight="normal" text-decoration="none" x="168" y="283">integer</text></g></g><g transform="translate(-30,-142) scale(1,1)"><g><path fill="none" stroke="none"></path><text fill="#000000" stroke="none" font-family="Arial" font-size="13px" font-style="normal" font-weight="normal" text-decoration="none" x="53" y="298">FK</text></g></g><g transform="translate(-30,-142) scale(1,1)"><g><path fill="none" stroke="none"></path><text fill="#000000" stroke="none" font-family="Arial" font-size="13px" font-style="normal" font-weight="normal" text-decoration="none" x="81" y="298">actividad_id</text></g></g><g transform="translate(-30,-142) scale(1,1)"><g><path fill="none" stroke="none"></path><text fill="#000000" stroke="none" font-family="Arial" font-size="13px" font-style="normal" font-weight="normal" text-decoration="none" x="168" y="298">integer</text></g></g><g transform="translate(-30,-142) scale(1,1)"><path fill="none" stroke="#000000" d="M 288 216 L 217 216" stroke-miterlimit="10"></path></g><g transform="translate(-30,-142) scale(1,1)"><path fill="none" stroke="#000000" d="M 231 216 L 217 209" stroke-miterlimit="10"></path></g><g transform="translate(-30,-142) scale(1,1)"><path fill="none" stroke="#000000" d="M 231 216 L 217 223" stroke-miterlimit="10"></path></g><g transform="translate(-30,-142) scale(1,1)"><path fill="#FFFFFF" stroke="none" d="M 232 216 C 232 212.1340064 235.1340064 209 239 209 C 242.8659936 209 246 212.1340064 246 216 C 246 219.8659936 242.8659936 223 239 223 C 235.1340064 223 232 219.8659936 232 216 Z"></path></g><g transform="translate(-30,-142) scale(1,1)"><path fill="none" stroke="#000000" d="M 232 216 C 232 212.1340064 235.1340064 209 239 209 C 242.8659936 209 246 212.1340064 246 216 C 246 219.8659936 242.8659936 223 239 223 C 235.1340064 223 232 219.8659936 232 216 Z" stroke-miterlimit="10"></path></g><g transform="translate(-30,-142) scale(1,1)"><path fill="none" stroke="#000000" d="M 281 223 L 281 209" stroke-miterlimit="10"></path></g><g transform="translate(-30,-142) scale(1,1)"><g><path fill="none" stroke="none"></path><text fill="#000000" stroke="none" font-family="Arial" font-size="13px" font-style="normal" font-weight="normal" text-decoration="none" x="261.5" y="236.5"></text></g></g><g transform="translate(-30,-142) scale(1,1)"><g><path fill="none" stroke="none"></path><text fill="#000000" stroke="none" font-family="Arial" font-size="13px" font-style="normal" font-weight="normal" text-decoration="none" x="241.5" y="236.5"></text></g></g><g transform="translate(-30,-142) scale(1,1)"><path fill="none" stroke="#000000" d="M 98 416 L 98 302" stroke-miterlimit="10"></path></g><g transform="translate(-30,-142) scale(1,1)"><path fill="none" stroke="#000000" d="M 98 316 L 105 302" stroke-miterlimit="10"></path></g><g transform="translate(-30,-142) scale(1,1)"><path fill="none" stroke="#000000" d="M 98 316 L 91 302" stroke-miterlimit="10"></path></g><g transform="translate(-30,-142) scale(1,1)"><path fill="#FFFFFF" stroke="none" d="M 91 324 C 91 320.1340064 94.1340064 317 98 317 C 101.8659936 317 105 320.1340064 105 324 C 105 327.8659936 101.8659936 331 98 331 C 94.1340064 331 91 327.8659936 91 324 Z"></path></g><g transform="translate(-30,-142) scale(1,1)"><path fill="none" stroke="#000000" d="M 91 324 C 91 320.1340064 94.1340064 317 98 317 C 101.8659936 317 105 320.1340064 105 324 C 105 327.8659936 101.8659936 331 98 331 C 94.1340064 331 91 327.8659936 91 324 Z" stroke-miterlimit="10"></path></g><g transform="translate(-30,-142) scale(1,1)"><path fill="none" stroke="#000000" d="M 91 409 L 105 409" stroke-miterlimit="10"></path></g><g transform="translate(-30,-142) scale(1,1)"><g><path fill="none" stroke="none"></path><text fill="#000000" stroke="none" font-family="Arial" font-size="13px" font-style="normal" font-weight="normal" text-decoration="none" x="82.5" y="396.5"></text></g></g><g transform="translate(-30,-142) scale(1,1)"><g><path fill="none" stroke="none"></path><text fill="#000000" stroke="none" font-family="Arial" font-size="13px" font-style="normal" font-weight="normal" text-decoration="none" x="82.5" y="333.5"></text></g></g></g></svg>